<svg xmlns="http://www.w3.org/2000/svg" viewBox="0 0 178.97 270.78"><defs><style>.cls-1{fill:none;stroke:#322153;stroke-miterlimit:10;}</style></defs><g id="Layer_2" data-name="Layer 2"><g id="Layer_1-2" data-name="Layer 1"><polyline class="cls-1" points="0.79 0.19 60.61 143.28 0.45 270.57"/><polyline class="cls-1" points="4.59 0.19 64.41 143.28 4.25 270.57"/><polyline class="cls-1" points="8.39 0.19 68.21 143.28 8.05 270.57"/><polyline class="cls-1" points="12.19 0.19 72.01 143.28 11.85 270.57"/><polyline class="cls-1" points="15.99 0.19 75.81 143.28 15.65 270.57"/><polyline class="cls-1" points="19.79 0.19 79.61 143.28 19.45 270.57"/><polyline class="cls-1" points="23.59 0.19 83.41 143.28 23.25 270.57"/><polyline class="cls-1" points="27.39 0.19 87.22 143.28 27.06 270.57"/><polyline class="cls-1" points="31.19 0.19 91.02 143.28 30.86 270.57"/><polyline class="cls-1" points="34.99 0.19 94.82 143.28 34.66 270.57"/><polyline class="cls-1" points="38.8 0.19 98.62 143.28 38.46 270.57"/><polyline class="cls-1" points="42.6 0.19 102.42 143.28 42.26 270.57"/><polyline class="cls-1" points="46.4 0.19 106.22 143.28 46.06 270.57"/><polyline class="cls-1" points="50.2 0.19 110.02 143.28 49.86 270.57"/><polyline class="cls-1" points="54 0.19 113.82 143.28 53.66 270.57"/><polyline class="cls-1" points="57.8 0.19 117.62 143.28 57.46 270.57"/><polyline class="cls-1" points="61.6 0.19 121.42 143.28 61.26 270.57"/><polyline class="cls-1" points="65.4 0.19 125.22 143.28 65.06 270.57"/><polyline class="cls-1" points="69.2 0.19 129.02 143.28 68.86 270.57"/><polyline class="cls-1" points="73 0.19 132.82 143.28 72.66 270.57"/><polyline class="cls-1" points="76.8 0.19 136.62 143.28 76.46 270.57"/><polyline class="cls-1" points="80.6 0.19 140.42 143.28 80.26 270.57"/><polyline class="cls-1" points="84.4 0.19 144.22 143.28 84.06 270.57"/><polyline class="cls-1" points="88.2 0.19 148.02 143.28 87.86 270.57"/><polyline class="cls-1" points="92 0.19 151.82 143.28 91.66 270.57"/><polyline class="cls-1" points="95.8 0.19 155.62 143.28 95.46 270.57"/><polyline class="cls-1" points="99.6 0.19 159.42 143.28 99.27 270.57"/><polyline class="cls-1" points="103.4 0.19 163.22 143.28 103.06 270.57"/><polyline class="cls-1" points="107.2 0.19 167.03 143.28 106.87 270.57"/><polyline class="cls-1" points="111 0.19 170.83 143.28 110.67 270.57"/><polyline class="cls-1" points="114.81 0.19 174.63 143.28 114.47 270.57"/><polyline class="cls-1" points="118.61 0.19 178.43 143.28 118.27 270.57"/></g></g></svg>