<svg xmlns="http://www.w3.org/2000/svg" width="43.779" height="58.987" viewBox="0 0 43.779 58.987"><g transform="translate(-66)"><g transform="translate(75.217 24.424)"><g transform="translate(0)"><path d="M147.152,212a1.152,1.152,0,1,0,1.152,1.152A1.153,1.153,0,0,0,147.152,212Z" transform="translate(-146 -212)" fill="#a4c546"/></g></g><g transform="translate(82.129 26.728)"><path d="M214.065,241.217h-1.152v-4.608h1.152a1.153,1.153,0,0,1,1.152,1.152,1.152,1.152,0,0,0,2.3,0,3.46,3.46,0,0,0-3.456-3.456h-1.152v-1.152a1.152,1.152,0,1,0-2.3,0V234.3h-1.152A3.46,3.46,0,0,0,206,237.76v2.3a3.46,3.46,0,0,0,3.456,3.456h1.152v4.608h-1.152a1.153,1.153,0,0,1-1.152-1.152,1.152,1.152,0,1,0-2.3,0,3.46,3.46,0,0,0,3.456,3.456h1.152v1.152a1.152,1.152,0,0,0,2.3,0v-1.152h1.152a3.46,3.46,0,0,0,3.456-3.456v-2.3A3.46,3.46,0,0,0,214.065,241.217Zm-3.456,0h-1.152a1.153,1.153,0,0,1-1.152-1.152v-2.3a1.153,1.153,0,0,1,1.152-1.152h1.152Zm4.608,5.76a1.153,1.153,0,0,1-1.152,1.152h-1.152v-4.608h1.152a1.153,1.153,0,0,1,1.152,1.152Z" transform="translate(-206 -232)" fill="#a4c546"/></g><g transform="translate(66)"><path d="M104,22.277l2.646-3.194a3.457,3.457,0,0,0-4.93-4.846c-.023.023-.045.047-.066.072l-3.095,3.67A21.777,21.777,0,0,0,92.5,15.7V9.217h3.456a4.608,4.608,0,0,0,0-9.217H79.825a4.608,4.608,0,0,0,0,9.217h3.456V15.7a21.783,21.783,0,0,0-6.056,2.282l-3.095-3.67q-.032-.037-.066-.072a3.457,3.457,0,0,0-4.93,4.846l2.646,3.194a21.89,21.89,0,1,0,32.218,0Zm-.626-6.439a1.153,1.153,0,0,1,1.6,1.658q-.038.038-.073.08l-2.556,3.085a22.025,22.025,0,0,0-1.825-1.441ZM79.825,6.912a2.3,2.3,0,0,1,0-4.608H95.954a2.3,2.3,0,0,1,0,4.608H79.825Zm10.369,2.3v5.991H85.585V9.217ZM70.878,17.575c-.023-.028-.047-.054-.073-.08a1.153,1.153,0,0,1,1.6-1.658l2.852,3.382a22.049,22.049,0,0,0-1.825,1.441ZM87.89,56.682A19.585,19.585,0,1,1,107.475,37.1,19.608,19.608,0,0,1,87.89,56.682Z" transform="translate(-66)" fill="#a4c546"/></g><g transform="translate(70.608 19.816)"><g transform="translate(0)"><path d="M123.281,172a17.08,17.08,0,0,0-7.772,1.848,1.152,1.152,0,1,0,1.039,2.057,14.794,14.794,0,0,1,6.733-1.6,14.985,14.985,0,1,1-13.3,8.1,1.152,1.152,0,0,0-2.044-1.063A17.279,17.279,0,1,0,123.281,172Z" transform="translate(-106 -172)" fill="#a4c546"/></g></g></g></svg>