<svg xmlns="http://www.w3.org/2000/svg" width="78.101" height="78.871" viewBox="0 0 78.101 78.871"><g transform="translate(-0.5)"><path d="M236.211,276.267a1.164,1.164,0,1,0-1.587,1.7c.235.218.456.44.668.667a10.328,10.328,0,1,1-4.685-2.936,1.164,1.164,0,1,0,.663-2.232,12.651,12.651,0,1,0,4.928,21.477A12.655,12.655,0,0,0,237,277.059C236.746,276.782,236.486,276.523,236.211,276.267Zm0,0" transform="translate(-181.47 -230.905)" fill="#a4c546"/><path d="M117.074,152.619a6.8,6.8,0,1,0,5.434,6.66A6.808,6.808,0,0,0,117.074,152.619Zm-1.37,11.135a4.472,4.472,0,1,1,4.475-4.475A4.477,4.477,0,0,1,115.7,163.754Zm0,0" transform="translate(-91.707 -128.991)" fill="#a4c546"/><path d="M78.6,20.249a20.089,20.089,0,0,0-2.093-8.974,1.164,1.164,0,0,0-2.087,1.031A17.923,17.923,0,1,1,58.353,2.328a17.98,17.98,0,0,1,13.1,5.691,1.164,1.164,0,1,0,1.7-1.589,20.248,20.248,0,0,0-33.565,6.212l-1.069-1.071a3.41,3.41,0,0,0-4.81,0l-.9.9a19.6,19.6,0,0,0-2.442-1V10.187a3.4,3.4,0,0,0-3.4-3.4H21.031a3.4,3.4,0,0,0-3.4,3.4v1.4a19.4,19.4,0,0,0-2.337,1l-1.01-1.01a3.4,3.4,0,0,0-4.8,0l-4.2,4.2a3.4,3.4,0,0,0,0,4.8L6.4,21.693a19.465,19.465,0,0,0-.9,2.231H3.9a3.4,3.4,0,0,0-3.4,3.4v5.938a3.4,3.4,0,0,0,3.4,3.4H5.608A19.667,19.667,0,0,0,6.5,38.781L5.281,40a3.409,3.409,0,0,0,0,4.81l4.2,4.2a3.4,3.4,0,0,0,4.8,0L15.5,47.787a19.364,19.364,0,0,0,2.13.892v1.714a3.4,3.4,0,0,0,3.4,3.4h1.123l-.131,2.854a3.461,3.461,0,0,0,3.3,3.609l1.636.074a20.289,20.289,0,0,0,.873,2.343L26.6,63.792a3.46,3.46,0,0,0-.217,4.88l4.1,4.494a3.464,3.464,0,0,0,4.88.22l1.309-1.2A20.07,20.07,0,0,0,38.85,73.2l-.079,1.787a3.456,3.456,0,0,0,3.29,3.605l6.083.278c.052,0,.105,0,.158,0a3.461,3.461,0,0,0,3.447-3.3l.082-1.785a19.766,19.766,0,0,0,2.262-.808l1.2,1.312a3.459,3.459,0,0,0,4.878.223l4.5-4.1a3.46,3.46,0,0,0,.219-4.882L63.763,64.3a20.087,20.087,0,0,0,1.083-2.258l1.631.075a3.455,3.455,0,0,0,3.608-3.29l.278-6.083a3.456,3.456,0,0,0-3.292-3.6l-1.482-.066a20.073,20.073,0,0,0-.871-2.494L65.79,45.6a3.464,3.464,0,0,0,.221-4.88L64.829,39.43A20.28,20.28,0,0,0,78.6,20.249ZM22.3,50.566l-.041.9H21.031a1.083,1.083,0,0,1-1.069-1.069V47.834a1.164,1.164,0,0,0-.83-1.115,17.011,17.011,0,0,1-3.289-1.379,1.164,1.164,0,0,0-1.383.2l-1.82,1.82a1.07,1.07,0,0,1-1.513,0l-4.2-4.2a1.079,1.079,0,0,1,0-1.516l1.82-1.82a1.164,1.164,0,0,0,.2-1.382,17.4,17.4,0,0,1-1.38-3.29,1.164,1.164,0,0,0-1.114-.826H3.9a1.07,1.07,0,0,1-1.069-1.069V27.321A1.07,1.07,0,0,1,3.9,26.252H6.36a1.163,1.163,0,0,0,1.12-.849,17.038,17.038,0,0,1,1.362-3.391,1.164,1.164,0,0,0-.2-1.37L6.927,18.93a1.075,1.075,0,0,1,0-1.512l4.2-4.2a1.07,1.07,0,0,1,1.512,0l1.62,1.62a1.165,1.165,0,0,0,1.395.191,17.038,17.038,0,0,1,3.476-1.485,1.165,1.165,0,0,0,.831-1.115V10.187a1.07,1.07,0,0,1,1.069-1.069h5.939a1.083,1.083,0,0,1,1.069,1.069v2.146a1.164,1.164,0,0,0,.845,1.12,17.2,17.2,0,0,1,3.584,1.468,1.163,1.163,0,0,0,1.386-.2l1.5-1.506a1.079,1.079,0,0,1,1.515,0l1.893,1.9A20.227,20.227,0,0,0,41.594,31.6a3.478,3.478,0,0,0-.956,2.226l-.058,1.324A20.089,20.089,0,0,0,38,36.092l-.9-.989a3.424,3.424,0,0,0-1.354-.91,12.361,12.361,0,1,0-9.041,8.175,3.427,3.427,0,0,0,.8,1.493l.979,1.075a19.96,19.96,0,0,0-1.094,2.4l-1.483-.069a3.461,3.461,0,0,0-3.605,3.3ZM34.047,30.288a9.958,9.958,0,0,1-.808,3.952,3.441,3.441,0,0,0-1.016.64l-4.5,4.1a3.427,3.427,0,0,0-.7.886,10.05,10.05,0,1,1,7.014-9.583ZM66.967,51.469a1.138,1.138,0,0,1,1.07,1.173l-.278,6.083a1.115,1.115,0,0,1-.368.779,1.1,1.1,0,0,1-.806.291l-2.476-.113a1.164,1.164,0,0,0-1.151.774,17.62,17.62,0,0,1-1.626,3.386,1.164,1.164,0,0,0,.131,1.4l1.7,1.859a1.124,1.124,0,0,1,.293.815,1.108,1.108,0,0,1-.362.777l-4.5,4.1a1.131,1.131,0,0,1-1.588-.072l-1.769-1.938a1.165,1.165,0,0,0-1.364-.265,17.464,17.464,0,0,1-3.446,1.23,1.164,1.164,0,0,0-.889,1.078l-.122,2.638a1.132,1.132,0,0,1-1.173,1.075l-6.083-.279A1.139,1.139,0,0,1,41.1,75.089l.117-2.637A1.164,1.164,0,0,0,40.43,71.3a17.679,17.679,0,0,1-3.322-1.54,1.164,1.164,0,0,0-1.385.14l-1.932,1.767a1.132,1.132,0,0,1-1.593-.072L28.1,67.1a1.132,1.132,0,0,1,.069-1.59l1.864-1.7a1.164,1.164,0,0,0,.258-1.38,17.967,17.967,0,0,1-1.314-3.52A1.164,1.164,0,0,0,27.9,58.04l-2.477-.113a1.133,1.133,0,0,1-1.074-1.177l.278-6.079A1.134,1.134,0,0,1,25.8,49.6l2.346.109a1.166,1.166,0,0,0,1.161-.8,17.664,17.664,0,0,1,1.605-3.533,1.164,1.164,0,0,0-.14-1.379l-1.546-1.7A1.132,1.132,0,0,1,29.3,40.7l4.5-4.1a1.132,1.132,0,0,1,1.587.072L36.861,38.3a1.164,1.164,0,0,0,1.383.256,17.826,17.826,0,0,1,3.739-1.37,1.163,1.163,0,0,0,.886-1.08l.1-2.172a1.1,1.1,0,0,1,.105-.418,20.239,20.239,0,0,0,18.984,6.638c.08-.012.161-.026.243-.042l1.995,2.183a1.13,1.13,0,0,1-.072,1.592l-1.694,1.547a1.164,1.164,0,0,0-.265,1.362,17.673,17.673,0,0,1,1.28,3.669,1.164,1.164,0,0,0,1.083.9Zm0,0" fill="#a4c546"/><path d="M254.643,311.558l-.058.045c-.024.02-.047.042-.071.062-.064.054-.128.108-.19.165-.086.078-.17.158-.251.24l-.067.071c-.057.059-.114.119-.169.179s-.129.148-.193.224l-.03.035c-.066.081-.129.163-.191.246l-.018.023c-.052.071-.1.143-.151.216-.014.021-.029.041-.043.062-.046.068-.088.138-.131.208-.016.026-.034.052-.05.079a6.834,6.834,0,0,0-.659,1.485l-.019.057a6.978,6.978,0,0,0-.218.989.036.036,0,0,0,0,.008c-.007.051-.012.1-.018.151-.022.178-.039.356-.047.536a6.945,6.945,0,0,0,11.615,5.442c.088-.081.174-.163.258-.247a6.94,6.94,0,0,0-9.3-10.277Zm7.764,2.286a4.612,4.612,0,1,1-6.812,6.22,4.575,4.575,0,0,1-1.2-2.859q-.012-.228,0-.459a4.576,4.576,0,0,1,1.5-3.2h0a4.576,4.576,0,0,1,3.1-1.207c.071,0,.142,0,.214,0A4.577,4.577,0,0,1,262.408,313.844Zm0,0" transform="translate(-212.809 -262.258)" fill="#a4c546"/><path d="M295.56,36.266a14.66,14.66,0,1,0,14.657,14.662A14.677,14.677,0,0,0,295.56,36.266Zm11.777,15.826h.5A12.348,12.348,0,0,1,296.725,63.2v-.5a1.164,1.164,0,0,0-2.329,0v.5a12.348,12.348,0,0,1-11.108-11.108h.5a1.164,1.164,0,0,0,0-2.328h-.5A12.351,12.351,0,0,1,294.4,38.65v.5a1.164,1.164,0,0,0,2.329,0v-.5a12.351,12.351,0,0,1,11.108,11.113h-.5a1.164,1.164,0,1,0,0,2.328Zm0,0" transform="translate(-237.207 -30.679)" fill="#a4c546"/><path d="M348.452,86.438a1.164,1.164,0,0,0-1.164,1.164v6.564h-2.7a1.164,1.164,0,1,0,0,2.328h3.862a1.164,1.164,0,0,0,1.164-1.164V87.6A1.165,1.165,0,0,0,348.452,86.438Zm0,0" transform="translate(-290.099 -73.122)" fill="#a4c546"/></g></svg>